<?xml version="1.0" standalone="no"?>
<!DOCTYPE svg PUBLIC "-//W3C//DTD SVG 20010904//EN"
 "http://www.w3.org/TR/2001/REC-SVG-20010904/DTD/svg10.dtd">
<svg version="1.0" xmlns="http://www.w3.org/2000/svg"
 width="1080.000000pt" height="1080.000000pt" viewBox="0 0 1080.000000 1080.000000"
 preserveAspectRatio="xMidYMid meet">
<metadata>
Created by potrace 1.16, written by Peter Selinger 2001-2019
</metadata>
<g transform="translate(0.000000,1080.000000) scale(0.100000,-0.100000)"
fill="#000000" stroke="none">
<path d="M5114 10284 c1 -56 4 -97 8 -91 12 19 19 -16 16 -74 -2 -30 -8 -54
-14 -54 -14 0 -44 -30 -44 -45 0 -13 -42 -30 -75 -30 -19 0 -22 4 -18 21 5 18
3 20 -16 14 -11 -3 -30 -3 -42 0 -16 6 -18 9 -8 21 10 13 6 22 -27 52 -21 21
-51 44 -66 51 -15 8 -25 18 -22 22 2 4 0 10 -6 14 -5 3 -10 -1 -10 -11 0 -13
-7 -15 -37 -10 -29 5 -35 4 -23 -4 12 -9 12 -11 1 -8 -24 7 -25 29 -2 35 27 7
27 23 1 30 -11 3 -20 9 -20 14 0 12 -34 11 -46 -1 -6 -6 -28 -19 -49 -30 -40
-21 -63 -18 -32 4 9 7 17 16 17 20 0 12 -67 6 -86 -9 -23 -17 -38 -19 -28 -3
4 6 -3 4 -16 -5 -18 -13 -38 -15 -87 -11 -42 4 -63 2 -63 -5 0 -6 -6 -11 -14
-11 -7 0 -19 -7 -26 -15 -8 -9 -18 -12 -29 -6 -25 12 -135 -11 -139 -30 -2
-12 5 -16 29 -17 44 -1 50 -12 6 -12 -21 0 -47 6 -58 13 -17 10 -23 10 -26 0
-9 -24 -23 -13 -23 17 0 37 -12 38 -30 4 -23 -43 -49 -50 -74 -22 -17 20 -28
24 -58 20 -30 -3 -38 -1 -38 12 0 20 -9 20 -34 1 -24 -18 -53 -19 -58 -3 -6
16 -71 16 -84 -1 -5 -7 -23 -14 -40 -16 -48 -6 -74 -16 -74 -31 0 -8 -4 -14
-10 -14 -5 0 -10 7 -10 16 0 12 -8 8 -30 -15 -32 -33 -50 -39 -50 -18 0 6 -8
0 -18 -16 -18 -30 -49 -44 -63 -30 -11 11 -81 4 -73 -8 3 -5 14 -9 25 -9 30 0
14 -17 -23 -26 -33 -7 -75 -29 -93 -48 -5 -6 -30 -24 -54 -41 -24 -16 -50 -40
-59 -53 -9 -13 -26 -28 -39 -33 -13 -5 -23 -17 -23 -28 0 -11 -5 -23 -10 -26
-6 -3 -7 -17 -4 -30 5 -21 0 -27 -30 -41 -20 -10 -47 -35 -61 -56 -14 -21 -30
-38 -35 -38 -6 0 -10 -7 -10 -16 0 -8 -5 -12 -10 -9 -7 4 -7 11 -2 18 12 16
22 57 14 57 -4 0 -27 -18 -52 -40 -25 -22 -48 -40 -52 -40 -12 0 -10 14 4 28
26 26 -4 23 -36 -4 -27 -22 -34 -35 -30 -52 3 -16 -8 -44 -33 -85 l-38 -62 -3
-155 c-1 -85 2 -193 7 -240 6 -51 6 -91 0 -102 -6 -10 -5 -27 2 -45 6 -15 11
-47 10 -70 0 -24 4 -43 9 -43 6 0 10 -7 10 -15 0 -9 7 -18 15 -21 9 -4 15 -19
15 -41 0 -21 11 -51 28 -76 27 -42 47 -86 62 -142 8 -29 46 -133 90 -245 12
-30 44 -117 71 -193 27 -75 55 -147 63 -160 7 -12 28 -60 46 -107 17 -47 36
-93 41 -102 5 -10 9 -24 9 -31 0 -19 133 -280 157 -309 12 -14 82 -51 128 -68
48 -18 81 -33 260 -120 105 -51 201 -102 214 -112 13 -10 29 -18 36 -18 11 0
46 -18 210 -111 28 -16 57 -32 65 -36 8 -4 38 -23 65 -42 28 -20 58 -41 67
-46 9 -6 63 -41 119 -80 57 -38 107 -72 113 -75 26 -12 93 -59 105 -74 7 -9
23 -16 35 -16 12 0 26 -4 32 -9 5 -5 35 -18 66 -29 64 -24 103 -53 124 -94 20
-38 4 -35 -21 4 -21 33 -87 77 -117 78 -25 0 -148 52 -148 62 0 4 -9 8 -19 8
-28 0 -123 -95 -170 -170 -30 -48 -41 -59 -41 -42 0 13 -6 22 -15 22 -20 0
-19 19 0 26 12 5 13 10 4 20 -16 19 -46 17 -53 -3 -4 -10 -10 -13 -14 -8 -8
11 -58 32 -117 48 -22 7 -44 17 -48 24 -4 7 -14 13 -21 13 -8 0 -19 7 -26 15
-7 9 -32 20 -57 26 -24 6 -46 15 -49 20 -3 5 -13 9 -22 9 -9 0 -55 18 -102 41
-92 44 -223 106 -255 120 -11 4 -40 13 -65 20 -25 6 -56 24 -70 39 -14 15 -33
30 -42 33 -10 4 -18 13 -18 21 0 7 -11 17 -25 20 -28 7 -85 57 -85 74 0 8
-131 82 -146 82 -9 0 -3 -39 7 -45 6 -4 8 -14 5 -22 -3 -8 -1 -11 4 -8 6 3 10
1 10 -4 0 -6 5 -11 11 -11 6 0 29 -18 51 -40 22 -22 46 -40 53 -40 16 0 95
-75 120 -112 9 -16 26 -28 37 -28 10 0 46 -13 80 -30 33 -16 65 -30 70 -30 14
0 48 -40 48 -55 0 -6 19 -18 43 -25 23 -8 44 -17 47 -21 3 -3 29 -18 58 -33
28 -14 58 -35 64 -46 7 -11 17 -20 23 -20 5 0 26 -15 45 -33 45 -43 74 -59 94
-51 10 4 18 0 22 -10 3 -9 17 -16 31 -16 18 0 24 -4 19 -15 -3 -9 0 -15 10
-15 8 0 24 -5 35 -11 16 -8 18 -13 8 -25 -9 -11 -9 -17 1 -29 16 -19 2 -20
-19 -1 -69 62 -232 153 -456 256 -147 67 -160 74 -165 80 -3 3 -16 11 -30 18
-28 13 -62 34 -70 42 -3 3 -21 18 -40 34 -87 71 -191 171 -210 201 -11 18 -20
46 -20 64 0 38 -13 39 -88 12 -60 -22 -66 -26 -140 -96 -29 -27 -58 -52 -64
-54 -10 -3 -6 75 8 179 2 19 1 40 -3 46 -5 7 -52 13 -118 15 l-110 4 -3 -488
-2 -488 27 -37 c16 -20 30 -39 33 -42 3 -3 54 -77 113 -165 59 -88 125 -185
147 -215 68 -95 50 -105 -61 -30 -67 45 -134 98 -196 157 -13 13 -23 17 -24
10 0 -7 -7 4 -14 23 -13 33 -14 26 -14 -87 -1 -103 1 -123 14 -123 8 0 15 -8
15 -18 0 -10 6 -19 13 -19 6 0 36 -5 65 -12 29 -6 64 -8 78 -5 14 4 24 2 24
-5 0 -6 11 -11 24 -11 66 0 156 -68 156 -117 0 -10 4 -23 8 -28 5 -6 17 -32
27 -60 20 -57 42 -95 54 -95 4 0 6 11 4 24 -8 42 15 38 42 -9 38 -63 90 -191
109 -262 23 -93 29 -156 21 -230 l-8 -68 -14 33 c-10 26 -11 37 -2 48 6 7 9
19 6 26 -3 8 -6 6 -6 -5 -1 -10 -6 -15 -12 -12 -6 4 -8 13 -5 20 6 16 -60 89
-74 80 -6 -4 -10 6 -10 24 0 24 -5 32 -25 37 -13 3 -27 14 -30 23 -7 23 -55
68 -55 53 0 -14 14 -40 49 -95 38 -58 20 -52 -34 13 -76 90 -99 93 -64 8 42
-104 52 -124 84 -168 17 -25 35 -58 39 -74 4 -15 19 -46 33 -69 21 -34 52
-121 53 -148 0 -4 -16 -7 -36 -7 -19 0 -37 -2 -40 -5 -3 -2 9 -19 26 -37 16
-18 30 -39 30 -46 0 -8 7 -17 15 -20 19 -8 19 -33 0 -54 -14 -16 -13 -18 15
-30 27 -11 30 -17 30 -54 0 -28 12 -66 35 -114 42 -84 46 -113 50 -289 2 -142
-4 -160 -50 -158 -11 0 -28 -3 -37 -7 -10 -5 -59 -11 -110 -14 -117 -6 -278
-39 -278 -56 0 -4 -5 -8 -11 -8 -5 0 -7 5 -3 12 5 8 -3 9 -29 5 -21 -3 -37 -2
-37 2 0 4 17 21 38 38 35 29 68 41 121 47 14 2 27 8 29 14 5 15 32 16 32 1 0
-11 77 -8 98 4 6 5 35 9 63 9 37 1 53 6 60 19 13 25 -10 37 -27 15 -11 -16
-13 -16 -16 6 -3 21 -8 23 -67 25 -34 1 -69 4 -77 7 -23 9 -16 26 10 26 13 0
31 3 40 6 30 11 16 24 -26 24 -50 0 -88 9 -88 20 0 10 17 15 74 25 30 5 36 9
27 18 -8 8 -72 13 -201 15 l-190 2 0 -37 c0 -33 1 -35 13 -18 9 12 19 15 28
10 7 -5 34 -8 59 -7 30 0 38 -2 25 -7 -11 -4 -38 -16 -60 -26 l-40 -20 38 -3
c51 -4 50 -33 -3 -67 -45 -29 -62 -29 -72 0 -4 14 -7 8 -8 -20 l-2 -40 -8 40
c-9 47 -1 155 11 155 16 0 10 15 -11 28 -20 12 -20 10 -20 -147 l0 -159 48 -7
c92 -13 350 -112 441 -169 36 -23 91 -88 91 -109 0 -4 -11 3 -25 15 -14 13
-34 31 -45 40 -10 9 -27 18 -37 20 -15 2 -18 -3 -16 -32 4 -80 27 -188 49
-234 13 -28 24 -56 24 -63 0 -8 7 -24 15 -37 12 -18 15 -46 13 -117 l-3 -94
-18 33 c-10 19 -16 40 -13 47 3 8 -4 25 -15 38 -23 30 -24 50 -4 67 19 16 19
30 1 30 -10 0 -14 10 -14 29 1 35 -8 51 -31 51 -9 0 -22 5 -29 12 -7 7 -12 9
-12 5 0 -4 -13 -1 -30 8 -16 8 -42 15 -58 15 -35 0 -92 19 -110 37 -12 11 -38
20 -114 37 -19 4 -26 11 -22 21 4 9 0 15 -9 15 -20 0 -29 14 -21 34 5 14 8 14
29 0 13 -9 22 -21 20 -27 -3 -7 0 -19 5 -27 9 -13 12 -13 25 3 7 11 11 25 9
32 -7 18 48 35 92 28 20 -3 38 -12 41 -19 3 -8 11 -14 19 -14 8 0 14 -8 14
-18 0 -16 8 -19 46 -20 37 0 45 3 42 16 -2 10 -11 16 -22 14 -30 -6 -66 7 -66
23 0 8 -4 15 -10 15 -23 0 -8 32 20 42 55 19 29 33 -61 33 -54 0 -101 -6 -134
-17 -27 -10 -54 -17 -60 -17 -24 3 -36 -2 -34 -13 1 -7 1 -22 0 -33 -2 -16 -4
-14 -16 10 -13 28 -13 24 -14 -62 -1 -51 3 -93 8 -93 5 0 23 -13 40 -29 17
-16 42 -31 55 -35 18 -4 23 -11 19 -26 -6 -23 22 -63 90 -131 26 -26 47 -51
47 -55 0 -5 16 -27 35 -48 19 -22 35 -44 35 -49 0 -5 13 -25 30 -44 34 -38 42
-80 13 -68 -55 22 -88 25 -165 15 -45 -6 -86 -14 -91 -17 -16 -10 -77 -21 -77
-14 0 4 -9 7 -20 7 -18 0 -20 -7 -20 -54 0 -50 1 -53 18 -41 9 8 20 19 24 24
4 6 8 2 8 -8 0 -14 4 -16 18 -9 9 5 32 7 50 5 19 -3 32 -1 32 5 0 6 15 12 33
14 24 2 31 7 29 20 -2 14 3 16 35 11 21 -3 51 -11 67 -19 34 -16 46 -11 39 17
-5 17 -2 20 13 17 11 -2 20 -13 22 -28 2 -14 8 -30 14 -37 5 -7 9 -22 7 -35
-3 -38 11 -59 35 -52 11 4 25 12 29 18 15 20 -2 -69 -20 -104 -16 -31 -22 -35
-58 -34 -22 0 -52 4 -66 8 -18 5 -38 2 -60 -9 -26 -14 -54 -17 -148 -14 l-116
4 -3 -97 c-3 -93 -2 -96 18 -91 11 3 20 9 20 14 0 4 11 6 24 3 15 -2 26 2 30
11 3 9 18 15 35 15 17 0 34 6 38 14 11 20 156 -50 202 -98 44 -46 38 -70 -16
-59 -60 13 -181 5 -268 -18 -44 -11 -81 -21 -82 -23 -1 -1 -4 -18 -5 -37 -3
-32 -2 -34 27 -31 17 2 75 14 129 27 112 28 137 30 154 13 29 -29 6 -76 -48
-96 -22 -8 -17 -10 36 -16 67 -8 77 -13 87 -39 10 -26 -10 -70 -28 -63 -28 10
-275 -119 -275 -144 0 -6 -9 -10 -20 -10 -22 0 -68 -36 -58 -45 7 -7 113 42
128 60 13 16 102 68 174 102 39 19 55 22 77 14 15 -5 30 -7 32 -4 10 9 47 -8
47 -23 0 -8 -31 -34 -69 -58 -38 -24 -121 -84 -186 -133 -64 -48 -134 -99
-156 -113 -22 -14 -41 -32 -44 -40 -3 -9 -6 -300 -8 -648 l-2 -632 1318 0
c1140 0 1317 2 1317 14 0 22 -19 30 -26 12 -10 -26 -27 -18 -20 9 5 20 3 25
-13 25 -11 0 -22 -8 -24 -18 -3 -10 -5 -6 -6 11 -1 23 -5 27 -31 27 -31 0 -34
3 -44 53 -4 15 -13 27 -21 27 -8 0 -15 9 -15 20 0 25 -23 26 -50 3 -14 -13
-16 -19 -7 -25 7 -5 8 -8 1 -8 -6 0 -19 9 -29 20 -23 25 -35 25 -35 1 0 -24
-26 -34 -51 -20 -11 5 -37 9 -57 7 -32 -3 -37 -8 -40 -30 -2 -16 -11 -30 -22
-33 -24 -8 -60 11 -60 30 0 20 -59 20 -66 0 -4 -8 -10 -15 -15 -15 -16 0 -9
22 14 41 21 19 21 19 2 17 -11 -1 -26 1 -33 6 -14 8 -55 -8 -80 -31 -17 -16
-72 -17 -72 -2 0 8 -5 7 -16 -2 -14 -11 -18 -10 -30 6 -10 14 -24 18 -54 17
-32 -2 -42 2 -55 22 -9 14 -14 29 -11 34 5 8 -4 9 -106 15 -39 2 -45 4 -37 19
5 9 14 18 21 20 9 3 9 6 0 11 -6 5 -18 -3 -28 -18 -24 -36 -48 -33 -40 5 5 27
3 30 -19 30 -19 0 -25 -5 -25 -22 l0 -23 -19 24 c-18 24 -20 24 -45 7 -27 -17
-72 -14 -61 5 4 5 -3 9 -13 9 -11 0 -22 -9 -25 -20 -4 -14 -10 -18 -22 -14
-12 5 -15 14 -11 30 5 17 2 24 -8 24 -8 0 -18 -5 -21 -10 -7 -11 -35 12 -35
29 0 5 -5 13 -12 17 -8 5 -9 0 -6 -14 5 -17 2 -22 -14 -22 -10 0 -16 4 -13 10
3 5 3 15 -1 21 -5 8 -9 8 -14 -1 -11 -18 -33 -1 -27 21 3 11 1 19 -4 19 -5 0
-9 -4 -9 -10 0 -11 -32 -1 -41 13 -10 15 -39 0 -33 -17 7 -17 -9 -28 -29 -20
-21 8 -9 44 14 44 27 0 24 14 -6 30 -14 7 -25 20 -25 27 0 23 -35 10 -38 -14
-3 -17 1 -20 17 -16 16 4 21 1 21 -16 0 -26 -10 -27 -36 -3 -58 53 -171 107
-149 72 7 -11 -15 -13 -40 -4 -13 5 -14 8 -3 15 9 6 5 8 -12 7 -68 -4 -80 1
-80 32 0 29 0 29 -49 23 -31 -3 -51 -1 -55 6 -4 6 -1 11 8 11 9 0 16 5 16 10
0 6 -9 10 -20 10 -15 0 -19 6 -17 22 2 19 -3 23 -24 23 -22 -1 -26 3 -23 21 3
16 -1 24 -13 26 -30 6 -61 -3 -68 -19 -4 -13 -3 -14 9 -4 8 7 20 10 26 6 17
-10 11 -25 -10 -25 -14 0 -20 -7 -21 -22 l0 -23 -11 22 c-6 13 -17 23 -25 23
-11 0 -11 4 -1 23 7 12 17 25 22 28 17 13 -4 30 -25 19 -13 -8 -19 -7 -19 1 0
6 14 16 30 22 40 15 39 37 -1 37 -23 0 -30 4 -26 14 3 8 -1 20 -9 26 -10 9
-14 9 -14 1 0 -6 -7 -11 -16 -11 -13 0 -15 7 -10 38 9 52 -6 73 -28 39 -12
-17 -23 -23 -36 -20 -14 4 -22 -1 -28 -17 -10 -27 -20 -9 -17 30 1 21 6 24 28
22 20 -3 27 1 27 13 0 13 -6 16 -25 13 -14 -3 -30 1 -36 8 -9 11 -15 11 -34
-2 -21 -14 -25 -13 -44 7 -28 30 -26 39 5 39 14 0 23 4 19 10 -3 5 -14 10 -23
10 -27 0 -42 44 -26 75 13 25 12 27 -6 32 -22 6 -27 23 -7 23 22 0 47 34 47
63 0 15 6 27 13 27 6 0 22 22 35 48 12 27 36 58 52 71 17 12 30 28 30 35 0 8
17 24 37 36 21 12 43 30 50 40 7 11 41 40 74 65 73 55 68 56 254 -32 33 -15
62 -31 65 -35 3 -3 52 -29 110 -57 145 -70 310 -159 375 -201 17 -11 37 -22
45 -26 17 -6 13 -4 142 -73 52 -27 128 -62 169 -77 40 -14 90 -34 109 -44 19
-10 78 -32 130 -50 52 -18 99 -36 105 -41 5 -5 17 -9 28 -9 10 0 37 -8 60 -19
23 -10 87 -35 142 -54 55 -20 148 -54 207 -76 59 -21 121 -42 137 -46 17 -4
33 -11 36 -16 4 -5 16 -9 27 -9 12 0 48 -9 80 -21 53 -18 194 -57 293 -79 98
-22 208 5 221 55 3 14 12 25 20 25 20 0 49 50 46 80 -3 24 7 34 89 89 50 34
103 64 116 67 14 4 57 22 96 41 46 23 102 40 160 49 49 8 94 17 99 20 5 4 42
9 81 13 l72 6 -1 121 0 122 40 -42 c23 -23 53 -58 68 -78 15 -20 34 -42 41
-50 8 -7 19 -23 26 -36 9 -17 21 -22 52 -22 105 0 163 -93 109 -175 -12 -18
-20 -47 -20 -71 0 -50 28 -191 43 -219 11 -21 19 -192 11 -236 -4 -22 -12 -28
-45 -33 -48 -8 -61 -32 -30 -55 19 -15 22 -23 15 -55 -3 -21 -15 -45 -25 -54
-17 -15 -17 -16 -1 -29 9 -7 13 -13 7 -12 -18 4 -45 -13 -45 -28 0 -8 -5 -11
-10 -8 -6 4 -16 2 -23 -3 -7 -5 -21 -12 -32 -15 -11 -2 17 -5 62 -6 l82 -1 6
38 c3 20 10 64 17 97 7 33 12 75 12 93 -1 52 28 35 41 -25 3 -18 22 -65 41
-103 19 -39 34 -77 34 -85 0 -13 50 -15 360 -15 374 0 377 0 349 40 -8 11 -12
12 -16 3 -7 -18 -21 -16 -26 5 -4 16 -5 16 -6 0 -2 -28 -22 -21 -61 20 -43 44
-80 72 -95 72 -6 0 -28 21 -49 46 -24 29 -41 42 -46 35 -7 -13 -40 -4 -52 13
-5 7 -8 4 -8 -6 0 -10 -4 -18 -10 -18 -5 0 -10 -9 -10 -19 0 -11 -6 -23 -12
-27 -21 -13 -48 -11 -48 3 0 7 -4 13 -10 13 -5 0 -10 -4 -10 -10 0 -5 -14 -10
-31 -10 -20 0 -29 -4 -26 -12 2 -7 9 -13 15 -13 18 0 17 -15 -3 -41 -21 -28
-33 -29 -61 -6 -23 20 -38 94 -22 110 7 7 7 21 -1 43 -6 17 -11 41 -11 51 0
11 -7 26 -15 34 -9 10 -13 24 -9 40 4 14 2 24 -5 24 -6 0 -11 8 -11 19 0 10
-9 25 -20 32 -14 10 -22 28 -24 59 -2 25 -5 45 -6 45 0 0 -2 16 -4 36 -2 30 1
37 23 47 31 14 58 52 43 61 -15 9 -7 63 11 76 10 7 14 21 12 36 -3 13 -11 53
-19 89 -10 48 -11 67 -2 73 7 4 3 9 -11 13 -17 5 -23 14 -23 33 0 14 -10 41
-21 60 -20 33 -20 36 -4 64 11 19 15 39 11 59 -3 17 -2 36 3 42 4 6 11 21 14
34 4 18 0 26 -19 34 -16 7 -24 20 -24 35 0 13 -4 22 -9 19 -17 -11 -41 6 -41
28 -1 21 -23 58 -34 56 -10 -1 -56 56 -56 69 0 6 -4 11 -10 11 -5 0 -10 7 -10
15 0 8 -4 15 -10 15 -15 0 -42 59 -36 78 3 9 1 24 -4 32 -9 13 -11 13 -20 0
-8 -12 -10 -11 -10 6 0 12 -7 25 -16 28 -10 4 -13 13 -9 25 3 11 -1 25 -9 33
-7 8 -16 23 -18 34 -2 10 -11 18 -21 18 -9 -1 -17 5 -17 13 0 8 -9 28 -21 44
-11 16 -22 36 -23 44 -1 8 -19 30 -39 50 -40 39 -47 61 -19 68 12 4 11 5 -6 6
-24 1 -43 32 -24 39 13 4 17 32 4 32 -4 0 -13 -5 -19 -11 -7 -7 -12 0 -17 25
-4 19 -13 41 -20 48 -7 7 -18 51 -25 98 -6 47 -15 108 -20 135 -5 28 -17 91
-26 140 -30 163 -37 229 -31 280 4 28 6 63 6 78 0 20 5 30 18 34 10 2 29 25
43 49 13 25 42 61 64 81 26 24 35 38 27 41 -8 2 -28 -10 -46 -27 -18 -17 -35
-31 -39 -31 -5 0 -18 -12 -31 -27 -12 -14 -28 -23 -34 -20 -14 9 -16 280 -2
429 12 139 20 946 9 1014 -18 120 -43 239 -76 369 -19 77 -39 156 -43 175 -28
122 -45 180 -88 305 -53 151 -58 164 -106 270 -36 80 -193 345 -269 453 -130
184 -257 326 -318 356 -11 5 -19 12 -19 16 0 4 -18 15 -40 25 -22 10 -40 22
-40 27 0 4 -26 8 -58 8 -49 0 -62 4 -82 25 -29 31 -44 23 -25 -15 8 -16 15
-40 15 -53 0 -28 -41 -70 -62 -62 -8 3 -23 -3 -33 -15 -26 -28 -32 -25 -31 16
1 31 4 35 24 31 16 -3 22 0 22 14 0 11 5 19 10 19 6 0 10 8 10 19 0 13 -10 20
-32 25 l-33 7 33 16 c25 12 32 22 32 44 0 15 -6 34 -12 41 -7 7 -26 39 -43 70
-16 32 -42 72 -58 89 -18 22 -24 36 -17 44 9 11 126 39 145 34 10 -2 20 0 114
22 24 5 58 21 74 35 18 16 38 24 51 21 43 -9 85 17 197 123 72 69 76 183 10
290 -19 32 -32 117 -25 174 6 54 6 59 -10 53 -10 -4 -18 -7 -19 -7 -1 0 2 -39
6 -87 5 -49 9 -110 10 -138 l2 -50 -33 0 c-18 -1 -37 -7 -41 -14 -7 -11 -14
-10 -35 5 -14 11 -26 24 -26 30 0 18 -78 40 -92 26 -19 -19 -49 -14 -74 13
-13 14 -27 25 -32 25 -26 0 -73 34 -79 58 -3 14 -17 41 -30 60 -28 42 -28 52
-4 100 29 55 83 102 119 102 17 0 32 3 34 8 8 17 88 63 121 69 61 10 82 -2
112 -61 19 -38 25 -62 21 -82 -3 -16 -2 -36 4 -44 8 -12 10 -9 10 12 0 15 5
38 12 52 9 20 8 41 -6 98 -9 40 -21 100 -26 133 -12 75 -52 136 -100 151 -43
14 -71 57 -52 76 11 11 15 10 23 -4 15 -26 34 -22 64 14 25 30 26 33 9 45 -14
10 -15 15 -4 28 12 14 11 18 -1 26 -21 13 -29 11 -23 -8 3 -10 -4 -3 -16 15
-12 17 -28 32 -34 32 -7 0 -44 -23 -81 -52 -65 -49 -69 -51 -94 -37 -18 10
-29 27 -35 58 -6 26 -6 45 0 49 12 9 50 80 59 112 7 22 6 23 -9 11 -9 -7 -16
-19 -16 -25 0 -6 -12 -24 -26 -41 -24 -28 -30 -30 -97 -29 -105 1 -198 52
-212 115 -9 39 -25 47 -25 12 0 -41 50 -96 117 -129 51 -25 55 -29 34 -34
l-24 -5 27 -13 c15 -6 36 -12 46 -12 12 0 20 -7 20 -16 0 -9 7 -39 15 -67 14
-48 20 -55 85 -95 38 -24 72 -47 75 -52 15 -24 -17 -61 -75 -87 -35 -17 -60
-34 -60 -44 0 -8 -4 -19 -9 -25 -5 -5 -14 -47 -21 -94 -6 -47 -20 -100 -31
-118 -11 -19 -16 -38 -13 -44 4 -7 2 -8 -4 -4 -7 4 -13 0 -13 -11 -2 -18 -5
-39 -8 -58 -1 -5 -5 -4 -10 4 -7 10 -13 11 -30 2 -11 -7 -21 -16 -21 -21 0 -6
-4 -10 -9 -10 -5 0 -7 8 -4 18 2 10 -3 25 -12 32 -15 12 -21 12 -48 -3 -22
-13 -33 -15 -41 -7 -8 8 -5 16 12 28 24 19 20 32 -10 32 -10 0 -18 7 -18 15 0
8 -4 15 -10 15 -5 0 -10 -7 -10 -15 0 -8 -7 -15 -15 -15 -10 0 -15 10 -15 34
0 39 -17 57 -47 50 -23 -6 -63 26 -63 50 0 11 -9 13 -34 9 -37 -6 -76 10 -76
31 0 8 -7 19 -15 26 -12 10 -15 9 -15 -7 0 -25 -10 -35 -24 -24 -6 5 -22 11
-36 13 -17 2 -26 10 -28 26 -4 29 23 30 39 1 8 -15 14 -18 22 -10 21 21 -23
47 -83 50 -33 1 -61 8 -71 17 -10 9 -23 13 -29 9 -7 -5 -11 0 -10 11 5 41 0
94 -8 94 -5 0 -14 -10 -20 -22 -10 -23 -11 -23 -11 5 -1 34 -21 36 -21 2 0
-14 -4 -25 -8 -25 -4 0 -7 27 -6 61 2 45 7 64 21 74 17 13 17 15 1 32 -17 17
-18 16 -18 -4 0 -48 -23 -71 -33 -33 -3 11 -13 23 -24 27 -27 10 -39 25 -40
52 -3 32 -12 40 -51 43 -19 1 -32 8 -32 15 0 8 -7 16 -15 19 -8 4 -15 12 -15
18 0 7 -5 17 -12 24 -7 7 -13 54 -15 118 -2 59 -8 113 -14 120 -6 8 -9 20 -6
28 4 9 -1 17 -11 19 -14 4 -14 5 2 6 10 0 26 10 35 20 10 11 53 30 97 42 43
12 88 25 99 30 18 7 18 8 -5 8 -14 1 -124 -24 -244 -54 -202 -51 -292 -66
-226 -38 38 16 203 63 221 63 21 0 43 26 34 41 -4 6 -8 35 -9 64 -1 42 2 55
17 65 12 7 17 19 14 30 -6 22 18 60 39 60 8 0 14 9 14 19 0 19 43 41 81 41 11
0 19 3 19 8 0 4 23 32 52 62 92 98 109 127 107 185 -1 28 4 60 12 72 12 20 11
26 -8 51 -16 22 -19 32 -11 40 8 8 8 18 0 37 -16 35 -16 35 23 35 19 0 35 4
35 9 0 5 15 19 33 30 36 22 76 22 103 1 14 -13 19 -11 35 9 l19 23 9 -25 c7
-18 19 -27 38 -29 17 -2 28 -9 28 -18 1 -28 16 -42 41 -36 17 5 26 1 34 -15
10 -18 13 -19 23 -6 7 8 24 17 40 19 22 4 28 1 33 -19 9 -33 29 -23 29 15 0
18 3 32 6 32 20 0 69 -34 69 -48 0 -9 8 -38 17 -64 15 -43 20 -48 47 -48 27 0
28 1 14 18 -9 9 -19 33 -23 52 -4 19 -14 40 -23 46 -10 7 -11 13 -4 18 6 3 19
-5 30 -19 11 -13 22 -21 26 -18 9 9 54 -17 88 -50 15 -16 31 -26 36 -23 4 2
27 -13 52 -35 24 -21 48 -39 53 -39 5 0 45 -27 88 -60 81 -61 97 -65 129 -31
30 32 40 67 25 88 -20 26 -18 48 5 64 20 13 20 17 7 60 -12 39 -12 53 -1 85
12 35 11 42 -13 93 -15 31 -35 65 -45 75 -20 22 -24 56 -8 72 22 22 0 42 -39
38 -30 -3 -43 2 -61 21 -13 14 -29 25 -36 25 -12 0 -29 13 -91 71 -13 12 -23
29 -23 39 0 11 -14 24 -37 33 -23 10 -31 17 -20 18 9 1 22 3 27 4 6 1 27 3 47
4 l37 1 -38 35 c-23 21 -49 35 -65 35 -19 0 -22 3 -12 9 17 11 5 32 -14 24
-20 -7 -19 0 5 39 30 50 24 67 -9 28 -34 -40 -46 -38 -26 5 7 17 16 38 19 49
4 11 12 16 21 12 23 -9 19 35 -15 138 -16 50 -33 107 -38 126 -7 27 -9 12 -8
-66z m-303 -300 c6 -8 25 -14 41 -14 26 0 29 -3 23 -22 -6 -19 -5 -21 6 -10
15 14 61 16 75 2 5 -5 33 -12 63 -15 62 -6 87 -21 70 -41 -8 -10 -14 -9 -30 7
-23 23 -111 29 -207 13 -23 -3 -32 -1 -30 8 3 14 -23 16 -61 4 -16 -6 -21 -5
-17 3 10 16 -10 14 -45 -5 -19 -10 -41 -13 -60 -9 -40 9 -30 19 35 34 49 11
86 31 57 31 -6 0 -11 6 -11 14 0 27 69 26 91 0z m-1205 -1535 c24 -11 54 -31
66 -45 13 -13 35 -24 50 -24 15 0 30 -5 33 -10 4 -6 21 -8 39 -4 29 5 39 0 77
-35 l44 -40 11 -118 c7 -79 7 -124 0 -135 -7 -11 -6 -21 3 -32 11 -13 9 -14
-14 -12 -14 2 -31 8 -37 14 -16 16 -27 15 -61 -3 -54 -28 -91 25 -85 122 l3
48 -32 -3 c-31 -3 -33 -1 -34 30 0 18 -2 42 -4 53 -2 11 -6 38 -8 59 -7 52
-51 96 -105 103 -36 5 -44 2 -75 -29 -58 -58 -88 -111 -83 -144 9 -49 9 -87 2
-139 -3 -27 -2 -56 3 -64 6 -10 11 4 16 45 14 130 29 201 53 242 14 25 30 41
37 38 7 -2 18 1 24 7 8 8 14 8 23 -1 9 -9 9 -15 0 -24 -7 -7 -12 -31 -12 -54
0 -45 10 -54 61 -54 42 0 36 -22 -18 -66 -116 -91 -129 -137 -68 -218 20 -25
32 -46 28 -46 -4 -1 2 -9 15 -20 17 -14 32 -18 53 -13 21 4 47 -2 82 -18 64
-29 60 -26 62 -47 4 -34 18 -77 29 -84 15 -10 26 0 26 23 0 28 23 23 43 -10
52 -88 -19 -190 -118 -172 -22 4 -51 13 -65 21 -39 20 -150 112 -150 124 0 6
-14 20 -31 31 -50 33 -93 95 -128 182 -42 107 -50 165 -41 282 9 111 43 196
94 236 41 33 130 35 192 4z m1736 -2326 c8 -10 126 -241 261 -513 182 -365
258 -529 291 -627 24 -72 50 -141 56 -153 13 -24 6 -70 -10 -70 -6 0 -10 -8
-10 -18 0 -15 -9 -19 -42 -20 l-43 -1 -90 181 c-55 111 -96 183 -106 185 -12
3 -17 14 -17 32 1 27 -23 83 -48 112 -9 10 -12 24 -7 35 7 18 7 17 13 -3 3
-16 9 -20 19 -14 19 12 0 60 -35 90 -31 27 -37 27 -28 -1 6 -20 5 -20 -9 -7
-15 15 -49 84 -61 126 -4 11 -13 27 -21 33 -8 7 -15 25 -15 40 0 31 -15 84
-35 121 -8 14 -12 29 -9 32 7 6 -29 101 -71 192 -52 112 -55 121 -37 139 13
12 16 32 15 71 -3 59 10 71 39 38z m-720 -109 c64 -32 138 -90 138 -109 0 -7
7 -16 16 -19 11 -4 15 -18 13 -53 -3 -75 16 -105 92 -143 96 -49 293 -274 377
-430 39 -71 110 -248 136 -335 11 -38 14 -160 5 -169 -2 -3 -15 12 -29 32 -13
20 -33 49 -45 63 -11 14 -27 37 -35 49 -15 23 -149 191 -159 200 -7 6 -84 97
-142 170 -79 98 -132 170 -127 175 3 3 31 -18 64 -45 97 -84 105 -90 113 -90
15 0 43 -39 36 -49 -3 -6 -2 -11 4 -11 5 0 11 5 13 12 2 6 19 -7 38 -30 20
-25 42 -42 54 -42 12 0 16 4 11 8 -6 4 -20 35 -30 70 -12 36 -26 62 -34 62 -7
0 -11 6 -8 13 3 7 -4 19 -14 25 -10 7 -19 17 -19 23 0 15 -103 139 -115 139
-6 0 -15 8 -21 18 -7 9 -29 25 -50 36 -22 10 -48 23 -59 29 -11 6 -50 11 -87
12 l-66 0 -146 149 c-84 86 -146 157 -146 168 0 23 26 66 54 91 28 24 98 17
168 -19z"/>
<path d="M4896 8953 c-4 -4 -19 -8 -34 -9 -15 -1 -34 -2 -43 -3 -9 0 -30 -14
-47 -31 -28 -26 -146 -90 -166 -90 -4 0 -14 -7 -23 -16 -12 -11 -13 -18 -4
-27 8 -8 14 -8 23 1 18 18 32 14 17 -5 -13 -15 -11 -16 14 -9 16 4 27 2 27 -4
0 -5 -11 -10 -25 -10 -14 0 -25 -4 -25 -9 0 -4 19 -5 43 0 23 4 46 8 51 9 4 0
6 6 3 14 -3 8 2 17 11 21 31 13 82 23 77 15 -3 -4 -21 -11 -40 -14 -33 -6 -50
-26 -22 -26 29 0 87 22 81 31 -3 6 4 7 20 3 21 -5 31 0 53 24 24 28 28 30 39
14 12 -15 13 -13 14 15 0 34 -2 33 88 53 54 12 110 7 147 -13 11 -6 23 -10 28
-9 4 1 7 -2 7 -8 0 -5 8 -10 18 -10 10 0 25 -11 32 -25 7 -13 16 -22 20 -20 5
3 10 -2 14 -10 3 -8 10 -15 16 -15 16 0 12 37 -5 44 -8 3 -12 12 -9 20 6 16
-88 56 -132 56 -22 0 -62 17 -74 31 -7 9 -186 20 -194 12z"/>
<path d="M5000 8861 c-21 -21 -27 -34 -23 -51 5 -20 8 -21 17 -8 9 12 15 13
26 4 34 -26 7 -71 -36 -60 -19 5 -22 0 -27 -44 -3 -28 -3 -91 0 -140 6 -86 7
-91 31 -97 14 -3 28 -2 31 2 9 12 59 33 81 33 19 0 73 61 84 95 3 11 8 35 10
54 2 18 8 36 14 40 9 5 10 54 2 86 -7 29 4 25 41 -15 41 -44 41 -44 34 -15 -8
37 -32 65 -55 65 -20 0 -50 31 -50 52 0 11 -14 17 -46 22 -84 11 -104 8 -134
-23z"/>
<path d="M4780 8710 c-36 -10 -110 -29 -164 -44 -55 -14 -105 -31 -111 -36 -7
-6 -19 -8 -26 -5 -8 3 -27 1 -44 -4 l-30 -9 31 -1 c33 -1 49 -20 45 -53 -2
-14 5 -18 31 -18 19 0 39 -5 45 -11 12 -12 45 -32 78 -48 11 -5 47 -15 80 -22
33 -7 66 -17 73 -22 7 -6 12 -6 12 0 0 5 21 9 48 9 35 -1 47 3 47 14 0 8 -4
72 -9 143 -10 144 -1 136 -106 107z"/>
<path d="M5368 8620 l-3 -61 62 -61 c34 -34 65 -59 68 -56 4 3 2 39 -4 79 -7
49 -7 79 0 92 13 23 5 47 -15 47 -13 0 -15 -14 -11 -82 3 -46 2 -76 -1 -68 -4
8 -15 23 -25 33 -14 13 -19 32 -19 77 0 57 -1 60 -24 60 -23 0 -24 -4 -28 -60z"/>
<path d="M5485 7589 c-4 -5 -14 -9 -23 -7 -10 2 -22 -7 -29 -20 -14 -26 -9
-42 11 -42 7 0 20 -16 29 -35 9 -20 24 -38 32 -41 24 -9 75 16 75 37 0 10 4
20 9 23 5 4 8 14 6 24 -2 9 -4 20 -4 25 -4 34 -90 63 -106 36z"/>
<path d="M3239 7158 c-3 -43 4 -94 15 -103 6 -5 10 -18 8 -27 -2 -10 1 -18 7
-18 6 0 11 -7 11 -15 0 -9 9 -15 23 -15 13 0 27 -3 31 -7 4 -4 19 -9 34 -11
15 -2 29 -7 30 -13 2 -5 9 -9 15 -9 16 0 98 -41 116 -58 19 -18 61 -33 72 -26
5 3 19 -2 31 -10 12 -9 28 -16 35 -16 18 0 16 39 -2 46 -8 4 -15 12 -15 19 0
23 -16 26 -69 13 -56 -13 -75 -6 -45 17 18 14 18 16 2 29 -10 7 -18 23 -18 35
0 11 -4 21 -10 21 -5 0 -10 -4 -10 -10 0 -5 -8 -10 -18 -10 -10 0 -23 -5 -30
-12 -9 -9 -12 -9 -12 3 0 8 -13 23 -30 32 -16 10 -30 23 -30 29 0 5 -7 8 -15
4 -8 -3 -15 -1 -15 4 0 9 -39 26 -53 22 -4 -1 -17 2 -27 8 -16 8 -19 18 -14
44 3 19 0 37 -6 41 -5 3 -10 0 -11 -7z"/>
<path d="M2747 4788 c-10 -5 -14 -14 -11 -20 5 -7 0 -9 -14 -6 -12 4 -22 2
-22 -2 0 -5 -11 -7 -25 -4 -21 4 -25 1 -25 -22 0 -20 4 -25 23 -23 12 1 40 -3
62 -9 27 -7 56 -7 90 -1 67 13 93 12 117 -6 20 -13 22 -12 33 8 24 47 7 63
-85 78 -89 16 -125 17 -143 7z"/>
<path d="M2650 4361 c0 -39 19 -70 21 -34 0 10 2 13 5 8 2 -6 25 -8 50 -6 32
2 44 0 40 -8 -5 -7 11 -12 51 -13 32 -1 82 -2 111 -3 40 -2 52 1 52 12 0 10 6
13 16 9 9 -3 17 -6 20 -6 2 0 1 -6 -1 -12 -3 -8 12 -20 38 -30 73 -31 107 -20
73 24 -8 11 -16 14 -22 8 -6 -6 -21 -6 -39 -1 -30 9 -27 13 10 15 13 1 20 8
20 21 0 16 -7 20 -40 21 -42 2 -312 16 -356 19 -14 1 -31 5 -37 9 -8 5 -12 -5
-12 -33z"/>
<path d="M2650 4199 l0 -44 253 0 c217 0 255 2 275 16 21 15 22 17 5 24 -10 5
-45 9 -78 10 -228 6 -432 19 -442 27 -10 8 -13 0 -13 -33z"/>
<path d="M2651 4030 c1 -74 1 -74 14 -40 12 31 14 32 14 10 1 -15 4 -20 9 -13
4 6 40 15 80 19 42 4 79 13 88 21 10 10 30 14 64 11 32 -2 51 1 54 9 3 8 38
11 109 11 105 -1 127 3 127 25 0 11 -68 13 -325 7 -5 0 -39 1 -75 3 -36 2 -75
-1 -88 -6 -18 -8 -25 -8 -32 2 -6 11 -9 11 -13 0 -4 -12 -7 -11 -16 1 -8 11
-11 -5 -10 -60z"/>
<path d="M2650 2862 c0 -40 4 -52 15 -52 8 0 15 -7 15 -15 0 -8 -7 -15 -15
-15 -12 0 -15 -15 -15 -71 0 -55 3 -69 13 -62 6 5 28 10 47 12 19 2 42 9 50
16 8 7 30 17 49 22 46 12 63 39 36 59 -28 21 -94 37 -127 30 -21 -4 -28 -2
-28 9 0 8 6 15 14 15 8 0 16 6 19 14 6 15 -3 28 -45 65 l-28 24 0 -51z"/>
<path d="M8354 2322 c-11 -9 -40 -33 -64 -52 -25 -19 -46 -38 -48 -42 -2 -4
-8 -8 -14 -8 -5 0 -74 -50 -154 -112 l-144 -112 0 -68 c0 -66 1 -68 47 -120
25 -29 51 -56 57 -59 6 -4 83 -23 171 -44 88 -20 162 -38 166 -41 4 -2 10 3
13 11 5 14 -3 657 -8 662 -1 2 -11 -5 -22 -15z"/>
<path d="M7055 1870 c17 -7 17 -9 3 -9 -24 -1 -23 -34 2 -90 25 -53 45 -70 86
-71 17 0 57 -8 90 -19 32 -10 142 -40 244 -66 152 -38 415 -107 590 -154 19
-5 97 -25 172 -43 133 -33 138 -33 144 -15 9 28 -6 128 -17 121 -6 -3 -15 -1
-22 4 -7 5 -48 17 -92 27 -44 9 -95 23 -113 31 -18 8 -43 14 -55 14 -13 0 -27
4 -32 9 -21 19 -240 83 -345 101 -36 6 -94 22 -130 35 -36 12 -121 35 -190 50
-69 15 -134 32 -145 38 -11 6 -43 11 -72 12 -29 1 -53 5 -52 11 0 10 -34 22
-66 22 l-20 1 20 -9z"/>
<path d="M6750 790 c0 -5 -13 -10 -28 -10 -16 0 -48 -9 -71 -21 -30 -14 -58
-20 -94 -18 -49 3 -52 2 -52 -21 0 -22 6 -25 75 -36 73 -13 76 -13 111 11 19
14 47 25 61 25 27 0 78 34 78 52 0 6 -13 8 -30 6 -20 -3 -30 0 -30 9 0 7 -4
13 -10 13 -5 0 -10 -4 -10 -10z"/>
</g>
</svg>
